# Blender v2.93.4 OBJ File: ''
# www.blender.org
mtllib burger1.mtl
o burgar_props:group3_pCylinder2_Mesh.004
v 0.077615 0.036954 0.032469
v 0.057328 0.036954 0.018930
v 0.035305 0.036954 0.029960
v 0.033568 0.036954 0.054530
v 0.053855 0.036954 0.068069
v 0.075878 0.036954 0.057039
v 0.077615 0.038727 0.032469
v 0.057328 0.038727 0.018930
v 0.035305 0.038727 0.029960
v 0.033568 0.038727 0.054530
v 0.053855 0.038727 0.068069
v 0.075878 0.038727 0.057039
v 0.055592 0.036954 0.043499
v 0.055592 0.038727 0.043499
v 0.040434 0.038559 0.058233
v 0.056948 0.038559 0.066485
v 0.040434 0.040678 0.058233
v 0.056948 0.040678 0.066485
v 0.048686 0.040678 0.041719
v 0.065200 0.040678 0.049972
v 0.048686 0.038559 0.041719
v 0.065200 0.038559 0.049972
v 0.048180 0.038559 0.037510
v 0.064694 0.038559 0.045763
v 0.048180 0.040678 0.037510
v 0.064694 0.040678 0.045763
v 0.056432 0.040678 0.020996
v 0.072946 0.040678 0.029249
v 0.056432 0.038559 0.020996
v 0.072946 0.038559 0.029249
v 0.035742 0.023699 0.053425
v 0.045666 0.023698 0.063349
v 0.035742 0.019350 0.053425
v 0.045666 0.019350 0.063349
v 0.075442 0.023699 0.053425
v 0.065518 0.023698 0.063349
v 0.075442 0.019350 0.053425
v 0.065518 0.019350 0.063349
v 0.035742 0.019350 0.033573
v 0.045666 0.019350 0.023649
v 0.035742 0.023699 0.033573
v 0.045666 0.023699 0.023649
v 0.065518 0.019350 0.023649
v 0.075442 0.019350 0.033573
v 0.075442 0.023699 0.033573
v 0.065518 0.023699 0.023649
v 0.049039 0.016884 0.056603
v 0.042488 0.016884 0.050052
v 0.062144 0.016884 0.056603
v 0.068695 0.016884 0.050052
v 0.068695 0.016884 0.036947
v 0.062144 0.016884 0.030396
v 0.049039 0.016884 0.030396
v 0.042488 0.016884 0.036947
v 0.033970 0.024458 0.060244
v 0.071649 0.024458 0.065808
v 0.033970 0.025666 0.060244
v 0.071649 0.025666 0.065808
v 0.039535 0.025666 0.022566
v 0.077213 0.025666 0.028130
v 0.039535 0.024458 0.022566
v 0.077213 0.024458 0.028130
v 0.077793 0.031336 0.047465
v 0.033390 0.031336 0.040908
v 0.033390 0.029185 0.040908
v 0.077793 0.029185 0.047465
v 0.052313 0.031336 0.066388
v 0.058870 0.031336 0.021985
v 0.058870 0.029185 0.021985
v 0.052313 0.029185 0.066388
v 0.079432 0.030609 0.036365
v 0.057231 0.032955 0.033086
v 0.035030 0.030609 0.029808
v 0.035030 0.029185 0.029808
v 0.057231 0.030805 0.033086
v 0.079432 0.029185 0.036365
v 0.076154 0.030609 0.058566
v 0.053952 0.032955 0.055287
v 0.031751 0.030609 0.052009
v 0.031751 0.029185 0.052009
v 0.053952 0.030805 0.055287
v 0.076154 0.029185 0.058566
v 0.035422 0.031336 0.059166
v 0.041212 0.030609 0.064749
v 0.041212 0.029185 0.064749
v 0.042852 0.029185 0.053648
v 0.044491 0.030805 0.042547
v 0.046130 0.029185 0.031447
v 0.047770 0.029185 0.020346
v 0.047770 0.030609 0.020346
v 0.040612 0.031336 0.024017
v 0.044491 0.032955 0.042547
v 0.070571 0.031336 0.064357
v 0.063414 0.030609 0.068027
v 0.063414 0.029185 0.068027
v 0.065053 0.029185 0.056927
v 0.066692 0.030805 0.045826
v 0.068332 0.029185 0.034725
v 0.069971 0.029185 0.023625
v 0.069971 0.030609 0.023625
v 0.075762 0.031336 0.029207
v 0.066692 0.032955 0.045826
v 0.073012 0.023694 0.026282
v 0.049659 0.023694 0.019736
v 0.032239 0.023694 0.036953
v 0.038172 0.023694 0.060716
v 0.061524 0.023694 0.067263
v 0.078944 0.023694 0.050046
v 0.073012 0.029300 0.026282
v 0.049659 0.029300 0.019736
v 0.032239 0.029300 0.036953
v 0.038172 0.029300 0.060716
v 0.061524 0.029300 0.067263
v 0.078944 0.029300 0.050046
v 0.055592 0.023694 0.043499
v 0.055592 0.029300 0.043499
v 0.037501 0.040477 0.056107
v 0.048682 0.040477 0.064440
v 0.037501 0.049704 0.056107
v 0.048682 0.049704 0.064440
v 0.076532 0.040477 0.050409
v 0.068200 0.040477 0.061590
v 0.076532 0.049704 0.050409
v 0.068200 0.049704 0.061590
v 0.034651 0.049704 0.036590
v 0.042984 0.049704 0.025409
v 0.034651 0.040477 0.036590
v 0.042984 0.040477 0.025409
v 0.062501 0.049704 0.022559
v 0.073683 0.049704 0.030891
v 0.073683 0.040477 0.030891
v 0.062501 0.040477 0.022559
v 0.051031 0.053568 0.057323
v 0.043650 0.053568 0.051822
v 0.063915 0.053568 0.055442
v 0.069415 0.053568 0.048060
v 0.067534 0.053568 0.035177
v 0.060153 0.053568 0.029676
v 0.047269 0.053568 0.031557
v 0.041769 0.053568 0.038938
v 0.064181 0.031502 0.020562
v 0.040237 0.031502 0.024418
v 0.031648 0.031502 0.047355
v 0.047003 0.031502 0.066437
v 0.070947 0.031502 0.062581
v 0.079536 0.031502 0.039644
v 0.064181 0.037108 0.020562
v 0.040237 0.037108 0.024418
v 0.031648 0.037108 0.047355
v 0.047003 0.037108 0.066437
v 0.070947 0.037108 0.062581
v 0.079536 0.037108 0.039644
v 0.055592 0.031502 0.043499
v 0.055592 0.037108 0.043499
vt 0.265078 0.449757
vt 0.262740 0.454745
vt 0.261851 0.454590
vt 0.265853 0.456769
vt 0.265924 0.449900
vt 0.263713 0.468162
vt 0.266659 0.456911
vt 0.260577 0.473706
vt 0.264518 0.468314
vt 0.259477 0.467209
vt 0.261421 0.473871
vt 0.260365 0.467376
vt 0.262829 0.461719
vt 0.263674 0.461874
vt 0.016394 0.004804
vt 0.011683 0.012175
vt 0.013617 0.012055
vt 0.014383 0.004921
vt 0.014000 0.028139
vt 0.016843 0.021444
vt 0.015962 0.028001
vt 0.018885 0.021306
vt 0.014249 0.004897
vt 0.009369 0.011553
vt 0.011327 0.011411
vt 0.014752 0.022158
vt 0.011758 0.028071
vt 0.013745 0.027908
vt 0.016821 0.021995
vt 0.012211 0.005038
vt 0.087734 0.973181
vt 0.089804 0.986796
vt 0.088230 0.980747
vt 0.148700 0.964890
vt 0.144701 0.966824
vt 0.146381 0.972794
vt 0.133066 0.957950
vt 0.104453 0.971831
vt 0.102731 0.965379
vt 0.102342 0.980843
vt 0.131558 0.979885
vt 0.129943 0.974023
vt 0.135651 0.959019
vt 0.106785 0.963386
vt 0.096980 0.973675
vt 0.134849 0.964358
vt 0.103906 0.986742
vt 0.089384 0.979508
vt 0.146933 0.958650
vt 0.096934 0.968510
vt 0.126456 0.958572
vt 0.134511 0.964447
vt 0.124763 0.969304
vt 0.346211 0.312436
vt 0.344275 0.313764
vt 0.345041 0.313525
vt 0.344088 0.317005
vt 0.345023 0.312805
vt 0.352535 0.338391
vt 0.354701 0.337702
vt 0.353301 0.338133
vt 0.347096 0.319648
vt 0.350986 0.316712
vt 0.351044 0.311808
vt 0.351738 0.311592
vt 0.345932 0.320528
vt 0.346729 0.315489
vt 0.345185 0.320765
vt 0.347939 0.326514
vt 0.349206 0.332766
vt 0.349952 0.332519
vt 0.353231 0.323373
vt 0.354655 0.330331
vt 0.351979 0.323777
vt 0.347879 0.313706
vt 0.350158 0.316973
vt 0.354912 0.334616
vt 0.353515 0.338100
vt 0.350486 0.332041
vt 0.356180 0.337247
vt 0.358605 0.334221
vt 0.359298 0.333990
vt 0.353985 0.330725
vt 0.355483 0.330058
vt 0.349618 0.317744
vt 0.347445 0.311287
vt 0.346638 0.311537
vt 0.355374 0.337518
vt 0.353605 0.335961
vt 0.354241 0.335748
vt 0.351226 0.331953
vt 0.346810 0.326880
vt 0.347365 0.315289
vt 0.350525 0.336215
vt 0.349660 0.324914
vt 0.347127 0.326448
vt 0.346240 0.319382
vt 0.347429 0.319005
vt 0.351675 0.331650
vt 0.348287 0.326073
vt 0.350881 0.324520
vt 0.463135 0.047611
vt 0.462501 0.048841
vt 0.460133 0.047754
vt 0.460920 0.056031
vt 0.465378 0.048637
vt 0.455840 0.064894
vt 0.463076 0.057043
vt 0.452471 0.066041
vt 0.458023 0.065948
vt 0.454525 0.057343
vt 0.454772 0.067159
vt 0.456925 0.058481
vt 0.457905 0.056650
vt 0.460176 0.057721
vt 0.041333 0.980718
vt 0.053869 0.972635
vt 0.043720 0.985014
vt 0.016984 0.965533
vt 0.029457 0.957161
vt 0.022655 0.966843
vt 0.047276 0.963035
vt 0.038958 0.950595
vt 0.051490 0.960560
vt 0.023694 0.974904
vt 0.031897 0.987273
vt 0.019487 0.977445
vt 0.159031 0.868085
vt 0.159263 0.915228
vt 0.135880 0.938822
vt 0.037629 0.956260
vt 0.048213 0.971262
vt 0.033257 0.981614
vt 0.026985 0.952944
vt 0.037704 0.929773
vt 0.088734 0.939071
vt 0.075701 0.966972
vt 0.037001 0.855488
vt 0.065126 0.915695
vt 0.074200 0.817518
vt 0.064897 0.868541
vt 0.135433 0.844701
vt 0.088276 0.844939
vt 0.186453 0.854007
vt 0.148475 0.816803
vt 0.187159 0.928284
vt 0.149955 0.966245
vt 0.465884 0.051836
vt 0.467553 0.048899
vt 0.465215 0.047831
vt 0.461954 0.061536
vt 0.468097 0.052856
vt 0.457058 0.068134
vt 0.464122 0.062566
vt 0.455851 0.064986
vt 0.459301 0.069224
vt 0.460085 0.054343
vt 0.458222 0.066132
vt 0.462509 0.055476
vt 0.461072 0.058143
vt 0.463361 0.059222
vt 0.106279 0.973855
vn 0.5551 0.0000 -0.8318
vn -0.4478 0.0000 -0.8941
vn -0.9975 0.0000 -0.0705
vn -0.5551 0.0000 0.8318
vn 0.4478 0.0000 0.8941
vn 0.9975 0.0000 0.0705
vn 0.0000 -1.0000 0.0000
vn -0.0000 1.0000 0.0000
vn -0.4470 0.0000 0.8945
vn 0.4470 0.0000 -0.8945
vn 0.8945 0.0000 0.4470
vn -0.8945 0.0000 -0.4470
vn 0.0000 -0.0000 1.0000
vn 0.0000 0.0000 -1.0000
vn 1.0000 0.0000 0.0000
vn -1.0000 0.0000 0.0000
vn -0.7071 -0.0000 0.7071
vn 0.7071 -0.0000 0.7071
vn -0.7071 0.0000 -0.7071
vn 0.7071 0.0000 -0.7071
vn -0.2304 -0.9454 0.2304
vn 0.0000 -0.9392 0.3433
vn 0.2304 -0.9454 0.2304
vn 0.3433 -0.9392 -0.0000
vn 0.2304 -0.9454 -0.2304
vn 0.0000 -0.9392 -0.3433
vn -0.2304 -0.9454 -0.2304
vn -0.3433 -0.9392 -0.0000
vn -0.1461 0.0000 0.9893
vn -0.2509 -0.0000 0.9680
vn -0.3150 0.0000 0.9491
vn -0.1629 0.9792 0.1210
vn -0.2154 0.9145 0.3425
vn -0.0122 0.9965 0.0825
vn 0.0396 -0.0000 -0.9992
vn 0.1461 0.0000 -0.9893
vn -0.0273 0.0000 -0.9996
vn 0.0158 -0.9942 -0.1068
vn 0.2049 -0.9783 0.0303
vn 0.1573 -0.9806 -0.1169
vn 0.9491 -0.0000 0.3150
vn 0.8491 0.0000 0.5282
vn -0.9996 -0.0000 0.0272
vn -0.9655 0.0000 0.2602
vn -0.9992 0.0000 -0.0397
vn -0.9893 0.0000 -0.1461
vn -0.9680 -0.0000 -0.2509
vn -0.9491 0.0000 -0.3150
vn 0.9893 0.0000 0.1461
vn 0.9992 -0.0000 0.0397
vn 0.1210 0.9792 0.1629
vn 0.5680 0.3037 0.7649
vn 0.3425 0.9145 0.2154
vn 0.1619 0.9795 -0.1202
vn -0.0247 0.9883 -0.1502
vn -0.0154 0.9956 -0.0928
vn 0.3150 -0.0000 -0.9491
vn 0.5282 0.0000 -0.8491
vn -0.1573 -0.9806 0.1169
vn -0.0303 -0.9783 0.2049
vn -0.1068 -0.9942 -0.0158
vn -0.1169 -0.9806 -0.1573
vn -0.2343 -0.9195 -0.3155
vn -0.2049 -0.9783 -0.0303
vn 0.0272 -0.0000 0.9996
vn 0.2602 0.0000 0.9656
vn -0.0397 0.0000 0.9992
vn 0.2155 0.9145 -0.3425
vn 0.1629 0.9792 -0.1210
vn 0.7649 0.3037 -0.5681
vn -0.8491 0.0000 -0.5282
vn -0.0158 -0.9942 0.1068
vn 0.1169 -0.9806 0.1573
vn -0.3155 -0.9195 0.2343
vn -0.0302 -0.9783 0.2049
vn 0.9996 -0.0000 -0.0273
vn 0.9655 0.0000 -0.2602
vn 0.0825 0.9965 0.0122
vn 0.0303 -0.9783 -0.2049
vn 0.9680 -0.0000 0.2509
vn -0.7649 0.3037 0.5681
vn -0.2155 0.9145 0.3425
vn -0.5282 0.0000 0.8491
vn 0.3155 -0.9196 -0.2343
vn 0.0302 -0.9783 -0.2049
vn 0.1068 -0.9942 0.0158
vn 0.2343 -0.9195 0.3155
vn -0.2602 0.0000 -0.9656
vn -0.0272 -0.0000 -0.9996
vn -0.3425 0.9145 -0.2154
vn -0.1210 0.9792 -0.1629
vn -0.5680 0.3037 -0.7649
vn -0.0825 0.9965 -0.0122
vn -0.3902 0.9145 0.1072
vn 0.1072 0.9145 0.3902
vn 0.2509 -0.0000 -0.9680
vn 0.0416 0.9956 -0.0844
vn 0.0670 0.9884 -0.1366
vn -0.1202 0.9795 -0.1619
vn 0.0641 0.9979 0.0095
vn -0.0641 0.9979 -0.0095
vn -0.0095 0.9979 0.0641
vn -0.0416 0.9956 0.0844
vn 0.1202 0.9795 0.1619
vn 0.0928 0.9956 -0.0154
vn 0.3902 0.9145 -0.1072
vn 0.0122 0.9965 -0.0826
vn 0.2154 0.9145 -0.3426
vn 0.0122 0.9965 -0.0825
vn -0.1072 0.9145 -0.3902
vn -0.0826 0.9965 -0.0122
vn -0.0844 0.9956 -0.0416
vn -0.1619 0.9795 0.1202
vn 0.0154 0.9956 0.0928
vn -0.1169 -0.9806 -0.1574
vn 0.0145 -0.9951 -0.0982
vn -0.0145 -0.9951 0.0982
vn -0.1574 -0.9806 0.1169
vn 0.1574 -0.9806 -0.1169
vn 0.0982 -0.9951 0.0145
vn 0.1169 -0.9806 0.1574
vn -0.0982 -0.9951 -0.0145
vn -0.1168 -0.9806 -0.1573
vn 0.1573 -0.9806 -0.1168
vn 0.2049 -0.9783 0.0302
vn 0.1168 -0.9806 0.1574
vn -0.2049 -0.9783 -0.0302
vn -0.1573 -0.9806 0.1168
vn 0.1073 0.9145 0.3902
vn 0.5681 0.3037 0.7649
vn 0.1210 0.9792 0.1630
vn -0.3902 0.9145 0.1073
vn -0.1630 0.9792 0.1210
vn -0.5681 0.3037 -0.7649
vn -0.1210 0.9792 -0.1630
vn -0.1073 0.9145 -0.3902
vn 0.3902 0.9145 -0.1073
vn 0.2699 0.0000 -0.9629
vn -0.7029 -0.0000 -0.7112
vn -0.9702 0.0000 0.2422
vn -0.2699 0.0000 0.9629
vn 0.7030 0.0000 0.7112
vn 0.9702 0.0000 -0.2422
vn 0.1445 0.0000 0.9895
vn -0.1445 0.0000 -0.9895
vn 0.9895 0.0000 -0.1445
vn -0.9895 0.0000 0.1445
vn -0.5975 0.0000 0.8018
vn 0.8018 0.0000 0.5975
vn -0.8018 0.0000 -0.5975
vn 0.5975 0.0000 -0.8018
vn -0.2853 0.8786 0.3829
vn 0.0721 0.8664 0.4942
vn 0.3829 0.8786 0.2853
vn 0.4942 0.8664 -0.0721
vn 0.2853 0.8786 -0.3829
vn -0.0721 0.8664 -0.4942
vn -0.3829 0.8786 -0.2853
vn -0.4942 0.8664 0.0721
vn -0.1590 0.0000 -0.9873
vn -0.9365 0.0000 -0.3507
vn -0.7791 0.0000 0.6269
vn 0.1590 0.0000 0.9873
vn 0.9365 0.0000 0.3507
vn 0.7791 -0.0000 -0.6269
vn 0.9680 0.0000 0.2508
vn 0.0844 0.9956 0.0416
vn 0.1366 0.9883 0.0670
vn 0.2508 0.0000 -0.9680
vn -0.9996 0.0000 0.0273
vn -0.2508 0.0000 0.9680
vn 0.0397 0.0000 -0.9992
vn 0.0273 0.0000 0.9996
vn -0.1502 0.9883 0.0247
vn -0.0928 0.9956 0.0154
vn 0.0095 0.9979 -0.0641
vn -0.0670 0.9883 0.1366
vn 0.1502 0.9883 -0.0247
vn -0.1366 0.9884 -0.0670
vn 0.0247 0.9884 0.1502
usemtl burgar_props:Food
s 1
f 2/1/1 7/2/1 1/3/1
f 3/4/2 8/5/2 2/1/2
f 4/6/3 9/7/3 3/4/3
f 5/8/4 10/9/4 4/6/4
f 6/10/5 11/11/5 5/8/5
f 1/3/6 12/12/6 6/10/6
f 2/1/7 1/3/7 13/13/7
f 3/4/7 2/1/7 13/13/7
f 4/6/7 3/4/7 13/13/7
f 5/8/7 4/6/7 13/13/7
f 6/10/7 5/8/7 13/13/7
f 1/3/7 6/10/7 13/13/7
f 7/2/8 8/5/8 14/14/8
f 8/5/8 9/7/8 14/14/8
f 9/7/8 10/9/8 14/14/8
f 10/9/8 11/11/8 14/14/8
f 11/11/8 12/12/8 14/14/8
f 12/12/8 7/2/8 14/14/8
f 16/15/9 17/16/9 15/17/9
f 18/18/8 19/19/8 17/16/8
f 20/20/10 21/21/10 19/19/10
f 21/21/7 16/15/7 15/17/7
f 22/22/11 18/18/11 16/15/11
f 15/17/12 19/19/12 21/21/12
f 24/23/9 25/24/9 23/25/9
f 25/24/8 28/26/8 27/27/8
f 28/26/10 29/28/10 27/27/10
f 30/29/7 23/25/7 29/28/7
f 30/29/11 26/30/11 24/23/11
f 23/25/12 27/27/12 29/28/12
f 38/31/13 32/32/13 34/33/13
f 46/34/14 40/35/14 42/36/14
f 44/37/15 35/38/15 37/39/15
f 33/40/16 41/41/16 39/42/16
f 52/43/7 50/44/7 47/45/7
f 45/46/8 46/34/8 42/36/8
f 33/40/17 32/32/17 31/47/17
f 38/31/18 35/38/18 36/48/18
f 41/41/19 40/35/19 39/42/19
f 46/34/20 44/37/20 43/49/20
f 33/40/21 47/45/21 34/33/21
f 34/33/22 49/50/22 38/31/22
f 38/31/23 50/44/23 37/39/23
f 37/39/24 51/51/24 44/37/24
f 51/51/25 43/49/25 44/37/25
f 52/43/26 40/35/26 43/49/26
f 53/52/27 39/42/27 40/35/27
f 54/53/28 33/40/28 39/42/28
f 70/54/29 84/55/30 85/56/31
f 83/57/32 84/55/33 67/58/34
f 90/59/35 69/60/36 89/61/37
f 70/54/38 85/56/39 86/62/40
f 82/63/41 58/64/42 56/65/42
f 80/66/43 57/67/44 79/68/45
f 65/69/46 73/70/47 74/71/48
f 66/72/49 71/73/50 63/74/49
f 93/75/51 58/64/52 77/76/53
f 101/77/54 68/78/55 72/79/56
f 99/80/57 60/81/58 62/82/58
f 98/83/59 76/84/60 66/72/61
f 96/85/62 56/65/63 95/86/64
f 95/86/65 58/64/66 94/87/67
f 100/88/68 101/77/69 60/81/70
f 74/71/48 59/89/71 61/90/71
f 69/60/72 88/91/73 89/61/39
f 98/83/59 62/82/74 76/84/75
f 76/84/76 60/81/77 71/73/50
f 63/74/78 93/75/51 77/76/53
f 65/69/46 79/68/45 64/92/46
f 66/72/61 82/63/79 96/85/62
f 77/76/80 66/72/49 63/74/49
f 83/57/32 57/67/81 84/55/82
f 85/56/31 57/67/83 55/93/83
f 86/62/40 55/93/84 80/66/85
f 65/69/86 86/62/40 80/66/79
f 65/69/86 74/71/60 88/91/73
f 89/61/39 88/91/73 61/90/87
f 59/89/88 89/61/89 61/90/88
f 73/70/90 91/94/91 59/89/92
f 64/92/93 79/68/94 83/57/32
f 67/58/34 94/87/95 93/75/51
f 70/54/29 94/87/67 67/58/29
f 96/85/62 95/86/64 70/54/38
f 69/60/72 99/80/64 98/83/59
f 69/60/36 100/88/96 99/80/57
f 72/79/97 68/78/98 91/94/99
f 102/95/100 92/96/101 78/97/102
f 78/97/103 93/75/104 102/95/105
f 101/77/69 63/74/78 71/73/106
f 68/78/107 101/77/69 100/88/108
f 91/94/91 68/78/109 90/59/110
f 64/92/111 91/94/91 73/70/90
f 92/96/112 83/57/113 78/97/114
f 96/85/115 70/54/38 81/98/116
f 75/99/117 69/60/72 98/83/118
f 81/98/116 70/54/38 86/62/119
f 87/100/120 88/91/121 75/99/117
f 87/100/120 97/101/122 81/98/116
f 82/63/79 56/65/63 96/85/123
f 86/62/124 85/56/125 55/93/84
f 61/90/87 88/91/126 74/71/60
f 99/80/127 62/82/74 98/83/128
f 94/87/129 58/64/130 93/75/131
f 79/68/132 57/67/81 83/57/133
f 59/89/134 91/94/135 90/59/136
f 60/81/70 101/77/69 71/73/137
f 104/102/138 109/103/138 103/104/138
f 105/105/139 110/106/139 104/102/139
f 106/107/140 111/108/140 105/105/140
f 107/109/141 112/110/141 106/107/141
f 108/111/142 113/112/142 107/109/142
f 103/104/143 114/113/143 108/111/143
f 104/102/7 103/104/7 115/114/7
f 105/105/7 104/102/7 115/114/7
f 106/107/7 105/105/7 115/114/7
f 107/109/7 106/107/7 115/114/7
f 108/111/7 107/109/7 115/114/7
f 103/104/7 108/111/7 115/114/7
f 109/103/8 110/106/8 116/115/8
f 110/106/8 111/108/8 116/115/8
f 111/108/8 112/110/8 116/115/8
f 112/110/8 113/112/8 116/115/8
f 113/112/8 114/113/8 116/115/8
f 114/113/8 109/103/8 116/115/8
f 118/116/144 124/117/144 120/118/144
f 126/119/145 132/120/145 128/121/145
f 121/122/146 130/123/146 123/124/146
f 127/125/147 119/126/147 125/127/147
f 138/128/8 139/129/8 140/130/8
f 128/121/7 131/131/7 122/132/7
f 118/116/148 119/126/148 117/133/148
f 121/122/149 124/117/149 122/132/149
f 126/119/150 127/125/150 125/127/150
f 130/123/151 132/120/151 129/134/151
f 120/135/152 134/136/152 119/137/152
f 124/138/153 133/139/153 120/135/153
f 123/140/154 135/141/154 124/138/154
f 123/140/155 137/142/155 136/143/155
f 129/144/156 137/142/156 130/145/156
f 126/146/157 138/128/157 129/144/157
f 125/147/158 139/129/158 126/146/158
f 119/137/159 140/130/159 125/147/159
f 142/148/160 147/149/160 141/150/160
f 143/151/161 148/152/161 142/148/161
f 144/153/162 149/154/162 143/151/162
f 145/155/163 150/156/163 144/153/163
f 146/157/164 151/158/164 145/155/164
f 141/150/165 152/159/165 146/157/165
f 142/148/7 141/150/7 153/160/7
f 143/151/7 142/148/7 153/160/7
f 144/153/7 143/151/7 153/160/7
f 145/155/7 144/153/7 153/160/7
f 146/157/7 145/155/7 153/160/7
f 141/150/7 146/157/7 153/160/7
f 147/149/8 148/152/8 154/161/8
f 148/152/8 149/154/8 154/161/8
f 149/154/8 150/156/8 154/161/8
f 150/156/8 151/158/8 154/161/8
f 151/158/8 152/159/8 154/161/8
f 152/159/8 147/149/8 154/161/8
f 2/1/1 8/5/1 7/2/1
f 3/4/2 9/7/2 8/5/2
f 4/6/3 10/9/3 9/7/3
f 5/8/4 11/11/4 10/9/4
f 6/10/5 12/12/5 11/11/5
f 1/3/6 7/2/6 12/12/6
f 16/15/9 18/18/9 17/16/9
f 18/18/8 20/20/8 19/19/8
f 20/20/10 22/22/10 21/21/10
f 21/21/7 22/22/7 16/15/7
f 22/22/11 20/20/11 18/18/11
f 15/17/12 17/16/12 19/19/12
f 24/23/9 26/30/9 25/24/9
f 25/24/8 26/30/8 28/26/8
f 28/26/10 30/29/10 29/28/10
f 30/29/7 24/23/7 23/25/7
f 30/29/11 28/26/11 26/30/11
f 23/25/12 25/24/12 27/27/12
f 38/31/13 36/48/13 32/32/13
f 46/34/14 43/49/14 40/35/14
f 44/37/15 45/46/15 35/38/15
f 33/40/16 31/47/16 41/41/16
f 47/45/7 48/162/7 52/43/7
f 48/162/7 54/53/7 52/43/7
f 54/53/7 53/52/7 52/43/7
f 52/43/7 51/51/7 50/44/7
f 50/44/7 49/50/7 47/45/7
f 42/36/8 41/41/8 31/47/8
f 31/47/8 32/32/8 42/36/8
f 32/32/8 36/48/8 42/36/8
f 36/48/8 35/38/8 42/36/8
f 35/38/8 45/46/8 42/36/8
f 33/40/17 34/33/17 32/32/17
f 38/31/18 37/39/18 35/38/18
f 41/41/19 42/36/19 40/35/19
f 46/34/20 45/46/20 44/37/20
f 33/40/21 48/162/21 47/45/21
f 34/33/22 47/45/22 49/50/22
f 38/31/23 49/50/23 50/44/23
f 37/39/24 50/44/24 51/51/24
f 51/51/25 52/43/25 43/49/25
f 52/43/26 53/52/26 40/35/26
f 53/52/27 54/53/27 39/42/27
f 54/53/28 48/162/28 33/40/28
f 70/54/29 67/58/29 84/55/30
f 90/59/35 68/78/36 69/60/36
f 82/63/41 77/76/166 58/64/42
f 80/66/43 55/93/44 57/67/44
f 65/69/46 64/92/46 73/70/47
f 66/72/49 76/84/76 71/73/50
f 72/79/56 102/95/167 101/77/54
f 102/95/167 63/74/168 101/77/54
f 99/80/57 100/88/169 60/81/58
f 95/86/65 56/65/66 58/64/66
f 74/71/48 73/70/47 59/89/71
f 76/84/76 62/82/77 60/81/77
f 65/69/46 80/66/170 79/68/45
f 77/76/80 82/63/41 66/72/49
f 85/56/31 84/55/171 57/67/83
f 59/89/88 90/59/172 89/61/89
f 70/54/29 95/86/173 94/87/67
f 69/60/36 68/78/36 100/88/96
f 64/92/174 92/96/175 91/94/99
f 92/96/175 72/79/97 91/94/99
f 102/95/100 72/79/176 92/96/101
f 67/58/177 93/75/104 78/97/103
f 93/75/104 63/74/178 102/95/105
f 64/92/179 83/57/113 92/96/112
f 83/57/113 67/58/180 78/97/114
f 81/98/116 97/101/122 96/85/115
f 97/101/122 66/72/61 96/85/115
f 98/83/118 66/72/61 97/101/122
f 97/101/122 75/99/117 98/83/118
f 65/69/86 87/100/120 86/62/119
f 87/100/120 81/98/116 86/62/119
f 65/69/86 88/91/121 87/100/120
f 88/91/121 69/60/72 75/99/117
f 87/100/120 75/99/117 97/101/122
f 104/102/138 110/106/138 109/103/138
f 105/105/139 111/108/139 110/106/139
f 106/107/140 112/110/140 111/108/140
f 107/109/141 113/112/141 112/110/141
f 108/111/142 114/113/142 113/112/142
f 103/104/143 109/103/143 114/113/143
f 118/116/144 122/132/144 124/117/144
f 126/119/145 129/134/145 132/120/145
f 121/122/146 131/131/146 130/123/146
f 127/125/147 117/133/147 119/126/147
f 140/130/8 134/136/8 136/143/8
f 134/136/8 133/139/8 136/143/8
f 133/139/8 135/141/8 136/143/8
f 136/143/8 137/142/8 140/130/8
f 137/142/8 138/128/8 140/130/8
f 117/133/7 127/125/7 128/121/7
f 128/121/7 132/120/7 131/131/7
f 131/131/7 121/122/7 122/132/7
f 122/132/7 118/116/7 117/133/7
f 117/133/7 128/121/7 122/132/7
f 118/116/148 120/118/148 119/126/148
f 121/122/149 123/124/149 124/117/149
f 126/119/150 128/121/150 127/125/150
f 130/123/151 131/131/151 132/120/151
f 120/135/152 133/139/152 134/136/152
f 124/138/153 135/141/153 133/139/153
f 123/140/154 136/143/154 135/141/154
f 123/140/155 130/145/155 137/142/155
f 129/144/156 138/128/156 137/142/156
f 126/146/157 139/129/157 138/128/157
f 125/147/158 140/130/158 139/129/158
f 119/137/159 134/136/159 140/130/159
f 142/148/160 148/152/160 147/149/160
f 143/151/161 149/154/161 148/152/161
f 144/153/162 150/156/162 149/154/162
f 145/155/163 151/158/163 150/156/163
f 146/157/164 152/159/164 151/158/164
f 141/150/165 147/149/165 152/159/165
