# Blender v2.93.4 OBJ File: ''
# www.blender.org
mtllib table1.mtl
o wooden_table_Cube.001
v 4.450167 8.716064 -10.264389
v 4.450167 9.257009 -10.264388
v 10.881214 9.257007 -2.600163
v 10.881214 8.716063 -2.600163
v -4.450167 9.257005 10.264392
v -4.450167 8.716061 10.264391
v -10.881214 9.257007 2.600166
v -10.881214 8.716063 2.600166
vt 0.999370 -0.005633
vt -0.004421 0.998157
vt -0.004421 -0.005633
vt 1.002044 -0.005816
vt -0.002044 0.998273
vt -0.002044 -0.005816
vt 0.991705 0.001965
vt 0.003244 0.990425
vt 0.003244 0.001965
vt 0.993106 0.005581
vt -0.003208 1.001895
vt -0.003208 0.005581
vt 0.375000 0.500000
vt 0.125000 0.750000
vt 0.125000 0.500000
vt 0.987697 0.008464
vt 0.007184 0.988977
vt 0.007184 0.008464
vt 0.999370 0.998157
vt 1.002044 0.998273
vt 0.991705 0.990425
vt 0.993106 1.001895
vt 0.375000 0.750000
vt 0.987697 0.988977
vn 0.7660 0.0000 -0.6428
vn 0.6428 -0.0000 0.7660
vn -0.7660 -0.0000 0.6428
vn -0.6428 0.0000 -0.7660
vn -0.0000 -1.0000 -0.0000
vn 0.0000 1.0000 0.0000
usemtl Material.001
s 1
f 2/1/1 4/2/1 1/3/1
f 3/4/2 6/5/2 4/6/2
f 5/7/3 8/8/3 6/9/3
f 7/10/4 1/11/4 8/12/4
f 6/13/5 1/14/5 4/15/5
f 3/16/6 7/17/6 5/18/6
f 2/1/1 3/19/1 4/2/1
f 3/4/2 5/20/2 6/5/2
f 5/7/3 7/21/3 8/8/3
f 7/10/4 2/22/4 1/11/4
f 6/13/5 8/23/5 1/14/5
f 3/16/6 2/24/6 7/17/6
o wooden_table.001_Cube.002
v -3.973343 8.180881 9.864289
v -3.713914 8.721824 9.646602
v -4.450167 8.721824 10.264391
v -4.450167 8.180881 10.264391
v -10.444870 8.180882 3.120180
v -10.209043 8.721825 3.401229
v -10.881214 8.721826 2.600165
v -10.881214 8.180882 2.600165
v -9.968046 8.180882 2.720078
v -10.444870 0.024785 3.120179
v -9.968046 0.024786 2.720077
v -9.472790 8.721826 2.783439
v -2.543352 8.721827 -3.031048
v -3.215524 8.721827 -3.832112
v -10.144961 8.721826 1.982376
v -10.404390 8.180882 2.200063
v -3.215524 8.180883 -3.832112
v -2.543352 8.180883 -3.031048
v 3.215524 8.180882 3.832114
v 3.215524 8.721825 3.832114
v 2.577674 8.180882 3.071954
v -4.375366 8.180881 9.385177
v -5.088017 8.721824 9.504230
v -4.351764 8.721824 8.886441
v 2.577674 8.721825 3.071954
v -4.852189 8.180881 9.785279
v -10.404390 0.024786 2.200062
v -10.881214 0.024786 2.600164
v -3.973343 0.024784 9.864288
v -4.450167 0.024784 10.264390
v -4.852189 0.024784 9.785278
v -4.375366 0.024784 9.385176
v 10.404390 8.180882 -2.200061
v 10.881214 8.180882 -2.600163
v 10.881214 8.721826 -2.600163
v 10.144961 8.721826 -1.982374
v 4.886511 8.180884 -9.744374
v 4.450167 8.180884 -10.264389
v 4.450167 8.721828 -10.264389
v 5.122338 8.721828 -9.463326
v 4.409688 8.180884 -9.344272
v 4.409688 0.024788 -9.344273
v 4.886511 0.024788 -9.744375
v 4.386086 8.721828 -8.845536
v 3.713914 8.721828 -9.646600
v 3.973343 8.180884 -9.864287
v 10.002368 8.180882 -2.679173
v 10.243364 8.721827 -3.360324
v 9.507112 8.721826 -2.742535
v 10.479192 8.180883 -3.079276
v 4.450167 0.024788 -10.264390
v 3.973343 0.024788 -9.864288
v 10.404390 0.024786 -2.200062
v 10.002368 0.024786 -2.679174
v 10.479192 0.024787 -3.079277
v 10.881214 0.024786 -2.600164
vt 0.375000 0.487994
vt 0.625000 0.500000
vt 0.375000 0.500000
vt 0.375000 0.723870
vt 0.625000 0.750000
vt 0.375000 0.750000
vt 0.362994 0.723870
vt 0.362994 0.723870
vt 0.750000 0.723870
vt 0.637006 0.750000
vt 0.637006 0.723870
vt 0.625000 0.762006
vt 0.375000 0.875000
vt 0.375000 0.762006
vt 0.625000 0.723870
vt 0.250000 0.750000
vt 0.250000 0.723870
vt 0.375000 0.375000
vt 0.625000 0.487994
vt 0.362994 0.524796
vt 0.250000 0.524796
vt 0.637006 0.524796
vt 0.625000 0.524796
vt 0.750000 0.524796
vt 0.375000 0.524796
vt 0.375000 0.750000
vt 0.637006 0.500000
vt 0.250000 0.500000
vt 0.375000 0.723870
vt 0.362994 0.750000
vt 0.375000 0.500000
vt 0.362994 0.524796
vt 0.362994 0.500000
vt 0.362994 0.750000
vt 0.375000 0.487994
vt 0.375000 0.524796
vt 0.362994 0.500000
vt 0.375000 0.487994
vt 0.625000 0.500000
vt 0.625000 0.487994
vt 0.375000 0.723870
vt 0.625000 0.750000
vt 0.625000 0.723870
vt 0.362994 0.723870
vt 0.362994 0.723870
vt 0.637006 0.723870
vt 0.750000 0.750000
vt 0.625000 0.762006
vt 0.375000 0.762006
vt 0.375000 0.750000
vt 0.637006 0.750000
vt 0.625000 0.375000
vt 0.362994 0.524796
vt 0.637006 0.524796
vt 0.625000 0.524796
vt 0.375000 0.524796
vt 0.375000 0.500000
vt 0.375000 0.750000
vt 0.637006 0.500000
vt 0.750000 0.500000
vt 0.362994 0.500000
vt 0.362994 0.750000
vt 0.375000 0.723870
vt 0.362994 0.524796
vt 0.375000 0.500000
vt 0.362994 0.500000
vt 0.362994 0.750000
vt 0.375000 0.487994
vt 0.375000 0.524796
vt 0.625000 0.875000
vt 0.375000 0.762006
vt 0.375000 0.762006
vn 0.6428 0.0000 0.7660
vn -0.7660 -0.0000 0.6428
vn -0.0000 1.0000 0.0000
vn -0.6428 -0.0000 -0.7660
vn 0.0000 -1.0000 0.0000
vn 0.7660 0.0000 -0.6428
usemtl Material.002
s 1
f 9/25/7 11/26/7 12/27/7
f 13/28/8 15/29/8 16/30/8
f 13/28/7 19/31/7 17/32/7
f 21/33/9 23/34/9 20/35/9
f 23/36/10 25/37/10 24/38/10
f 15/29/10 24/38/10 16/30/10
f 20/35/9 15/29/9 14/39/9
f 17/32/11 25/40/11 26/41/11
f 27/42/7 10/43/7 9/25/7
f 30/44/11 26/41/11 29/45/11
f 32/46/9 14/39/9 31/47/9
f 33/48/9 20/35/9 32/46/9
f 30/44/11 13/28/11 17/32/11
f 31/47/8 13/28/8 34/49/8
f 11/26/8 34/49/8 12/27/8
f 24/38/10 36/50/10 16/30/10
f 10/51/9 33/48/9 32/46/9
f 10/51/9 31/47/9 11/26/9
f 27/52/11 30/44/11 29/45/11
f 18/53/11 35/54/11 19/31/11
f 38/55/11 40/56/11 37/57/11
f 16/30/8 18/53/8 13/28/8
f 17/32/12 35/54/12 24/58/12
f 12/27/7 37/59/7 9/25/7
f 30/44/10 39/60/10 34/49/10
f 9/61/12 40/56/12 30/44/12
f 34/49/8 38/55/8 12/27/8
f 41/62/7 43/63/7 44/64/7
f 45/65/12 47/66/12 48/67/12
f 50/68/7 45/65/7 49/69/7
f 52/70/9 22/71/9 21/33/9
f 25/37/10 53/72/10 54/73/10
f 54/73/10 47/66/10 46/74/10
f 48/67/9 53/75/9 52/70/9
f 25/40/11 49/69/11 26/41/11
f 27/42/7 44/64/7 28/76/7
f 26/41/11 55/77/11 29/45/11
f 48/67/9 57/78/9 56/79/9
f 52/70/9 33/48/9 57/78/9
f 49/69/11 58/80/11 55/77/11
f 45/65/12 56/79/12 58/80/12
f 58/80/12 43/63/12 42/81/12
f 59/82/10 54/73/10 46/74/10
f 44/83/9 33/48/9 28/84/9
f 43/63/9 57/78/9 44/83/9
f 27/52/11 55/77/11 41/85/11
f 60/86/11 51/87/11 50/68/11
f 62/88/11 64/89/11 61/90/11
f 51/87/12 46/74/12 45/65/12
f 60/86/8 49/69/8 54/91/8
f 61/92/7 42/81/7 41/62/7
f 63/93/10 55/77/10 58/80/10
f 62/88/8 41/85/8 55/77/8
f 64/89/12 58/80/12 42/81/12
f 9/25/7 10/43/7 11/26/7
f 13/28/8 14/39/8 15/29/8
f 13/28/7 18/53/7 19/31/7
f 21/33/9 22/71/9 23/34/9
f 23/36/10 22/94/10 25/37/10
f 15/29/10 23/36/10 24/38/10
f 20/35/9 23/34/9 15/29/9
f 17/32/11 24/58/11 25/40/11
f 27/42/7 28/76/7 10/43/7
f 30/44/11 17/32/11 26/41/11
f 32/46/9 20/35/9 14/39/9
f 33/48/9 21/33/9 20/35/9
f 30/44/11 34/49/11 13/28/11
f 31/47/8 14/39/8 13/28/8
f 11/26/8 31/47/8 34/49/8
f 24/38/10 35/95/10 36/50/10
f 10/51/9 28/84/9 33/48/9
f 10/51/9 32/46/9 31/47/9
f 27/52/11 9/61/11 30/44/11
f 18/53/11 36/50/11 35/54/11
f 38/55/11 39/60/11 40/56/11
f 16/30/8 36/50/8 18/53/8
f 17/32/12 19/31/12 35/54/12
f 12/27/7 38/55/7 37/59/7
f 30/44/10 40/56/10 39/60/10
f 9/61/12 37/57/12 40/56/12
f 34/49/8 39/60/8 38/55/8
f 41/62/7 42/81/7 43/63/7
f 45/65/12 46/74/12 47/66/12
f 50/68/7 51/87/7 45/65/7
f 52/70/9 53/75/9 22/71/9
f 25/37/10 22/94/10 53/72/10
f 54/73/10 53/72/10 47/66/10
f 48/67/9 47/66/9 53/75/9
f 25/40/11 54/91/11 49/69/11
f 27/42/7 41/62/7 44/64/7
f 26/41/11 49/69/11 55/77/11
f 48/67/9 52/70/9 57/78/9
f 52/70/9 21/33/9 33/48/9
f 49/69/11 45/65/11 58/80/11
f 45/65/12 48/67/12 56/79/12
f 58/80/12 56/79/12 43/63/12
f 59/82/10 60/96/10 54/73/10
f 44/83/9 57/78/9 33/48/9
f 43/63/9 56/79/9 57/78/9
f 27/52/11 29/45/11 55/77/11
f 60/86/11 59/82/11 51/87/11
f 62/88/11 63/93/11 64/89/11
f 51/87/12 59/82/12 46/74/12
f 60/86/8 50/68/8 49/69/8
f 61/92/7 64/89/7 42/81/7
f 63/93/10 62/88/10 55/77/10
f 62/88/8 61/90/8 41/85/8
f 64/89/12 63/93/12 58/80/12
